<svg width="30" height="30" viewBox="0 0 30 30" fill="none" xmlns="http://www.w3.org/2000/svg">
<g clip-path="url(#clip0_520_198)">
<path fill-rule="evenodd" clip-rule="evenodd" d="M0 0H30V30H0V0Z" fill="white"/>
<path fill-rule="evenodd" clip-rule="evenodd" d="M1.32028 27.6566H1.23453C1.23453 27.6138 1.21305 27.5493 1.21305 27.5277C1.21305 27.5064 1.21305 27.4636 1.14862 27.4636H1.01975V27.6566H0.955314V27.2058H1.14862C1.23453 27.2058 1.29881 27.2275 1.29881 27.3131C1.29881 27.3775 1.27733 27.3991 1.25601 27.4203C1.27748 27.4419 1.29881 27.4634 1.29881 27.5064V27.5921C1.29881 27.6138 1.29881 27.6138 1.32028 27.6138V27.6566ZM1.23453 27.3347C1.23453 27.2703 1.19157 27.2703 1.17009 27.2703H1.01975V27.3991H1.14862C1.19157 27.3991 1.23453 27.3775 1.23453 27.3347V27.3347ZM1.5995 27.4205C1.5995 27.163 1.38487 26.9481 1.10566 26.9481C0.84808 26.9481 0.633301 27.163 0.633301 27.4205C0.633301 27.6995 0.84808 27.9145 1.10566 27.9145C1.38472 27.9143 1.5995 27.6995 1.5995 27.4205ZM1.53506 27.4205C1.53506 27.6567 1.34192 27.8284 1.10566 27.8284C0.869402 27.8284 0.697735 27.6566 0.697735 27.4205C0.697735 27.2058 0.869558 27.0125 1.10566 27.0125C1.34176 27.0125 1.53506 27.2058 1.53506 27.4205ZM27.9862 18.7467C27.9862 19.3908 27.5783 19.6911 26.8482 19.6911H25.4529V19.0469H26.8482C26.9771 19.0469 27.0845 19.0256 27.1276 18.9828C27.1704 18.9396 27.2133 18.8752 27.2133 18.7895C27.2133 18.7034 27.1705 18.6176 27.1276 18.5748C27.0845 18.5317 26.9987 18.5104 26.8698 18.5104C26.2045 18.4888 25.367 18.5317 25.367 17.5872C25.367 17.1576 25.6461 16.6852 26.3975 16.6852H27.8359V17.3294H26.5047C26.3762 17.3294 26.2901 17.3294 26.2257 17.3722C26.1612 17.4367 26.1184 17.5011 26.1184 17.6085C26.1184 17.7159 26.1829 17.7803 26.2686 17.8234C26.3547 17.8447 26.4406 17.8662 26.548 17.8662H26.9343C27.3422 17.8662 27.5999 17.952 27.7718 18.1025C27.9003 18.2527 27.9862 18.4461 27.9862 18.7467V18.7467ZM24.9589 18.1025C24.7871 17.952 24.5294 17.8662 24.1214 17.8662H23.7351C23.6279 17.8662 23.5418 17.8446 23.4561 17.8234C23.37 17.7803 23.3059 17.7159 23.3059 17.6085C23.3059 17.5011 23.3272 17.4367 23.4131 17.3722C23.4776 17.3294 23.5633 17.3294 23.6922 17.3294H25.0234V16.6852H23.585C22.8119 16.6852 22.5542 17.1576 22.5542 17.5872C22.5542 18.5316 23.3917 18.4888 24.0573 18.5104C24.1859 18.5104 24.2719 18.5317 24.3147 18.5748C24.3575 18.6176 24.4008 18.7034 24.4008 18.7895C24.4008 18.8752 24.3577 18.9396 24.3147 18.9828C24.2503 19.0256 24.1645 19.0469 24.0357 19.0469H22.6401V19.6911H24.0357C24.7655 19.6911 25.1735 19.3907 25.1735 18.7467C25.1735 18.4461 25.0878 18.2527 24.9589 18.1025V18.1025ZM22.2107 19.0687H20.5149V18.4674H22.1679V17.8665H20.5149V17.3081H22.2107V16.6855H19.8062V19.6912H22.2107V19.0687ZM19.0332 16.8359C18.7969 16.707 18.5179 16.6854 18.1529 16.6854H16.4999V19.6911H17.2297V18.5962H18.0027C18.2601 18.5962 18.4106 18.6178 18.518 18.725C18.6469 18.8752 18.6469 19.1329 18.6469 19.3262V19.6911H19.3552V19.1113C19.3552 18.8323 19.3339 18.7034 19.248 18.5532C19.1835 18.4671 19.055 18.3599 18.8832 18.2955C19.0761 18.2313 19.3985 17.9736 19.3985 17.5011C19.3983 17.1578 19.2694 16.9645 19.0332 16.8359V16.8359ZM14.9539 16.6854H12.6566L11.7333 17.6731L10.8531 16.6854H7.95463V19.6911H10.8103L11.7335 18.7034L12.6138 19.6911H14.0094V18.6822H14.9111C15.5337 18.6822 16.1566 18.5104 16.1566 17.6731C16.1564 16.8572 15.5122 16.6854 14.9539 16.6854ZM18.4534 17.9308C18.3462 17.9736 18.2388 17.9736 18.11 17.9736L17.2297 17.9952V17.3079H18.11C18.2388 17.3079 18.3677 17.3079 18.4534 17.3724C18.5395 17.4155 18.6036 17.5012 18.6036 17.6301C18.6036 17.759 18.5395 17.8664 18.4534 17.9308V17.9308ZM14.9539 18.081H14.0092V17.3079H14.9539C15.2117 17.3079 15.3833 17.4155 15.3833 17.6731C15.3833 17.9308 15.2115 18.081 14.9539 18.081ZM12.1842 18.1882L13.3006 17.0076V19.4336L12.1842 18.1882ZM10.4451 19.0687H8.66309V18.4674H10.2518V17.8665H8.66309V17.3081H10.4666L11.261 18.1884L10.4451 19.0687V19.0687ZM25.9894 14.5169H24.9589L23.6063 12.2625V14.5169H22.1466L21.8672 13.8512H20.3644L20.0853 14.5169H19.2478C18.9043 14.5169 18.4534 14.431 18.196 14.1733C17.9598 13.9157 17.8309 13.5722 17.8309 13.0354C17.8309 12.5845 17.8953 12.1766 18.2172 11.8546C18.4318 11.6183 18.8184 11.5111 19.3121 11.5111H19.9991V12.1553H19.3121C19.0547 12.1553 18.9042 12.1982 18.754 12.3271C18.6251 12.456 18.5607 12.6921 18.5607 13.0141C18.5607 13.3361 18.6251 13.5723 18.754 13.7227C18.8612 13.8299 19.0547 13.8729 19.2477 13.8729H19.5698L20.6003 11.5112H21.6739L22.8762 14.3452V11.5111H23.9927L25.2595 13.5937V11.5111H25.9892V14.5169H25.9894V14.5169ZM17.4659 11.5111H16.7361V14.5169H17.4659V11.5111V11.5111ZM15.9415 11.6399C15.7052 11.5111 15.4478 11.5111 15.0828 11.5111H13.4295V14.5169H14.1379V13.4218H14.9108C15.1686 13.4218 15.3404 13.4433 15.4476 13.5507C15.5765 13.7011 15.5549 13.9588 15.5549 14.1305V14.5169H16.2846V13.9157C16.2846 13.6581 16.2633 13.5292 16.1561 13.3789C16.0917 13.293 15.9628 13.1856 15.8126 13.1213C16.0056 13.0354 16.3279 12.7993 16.3279 12.3269C16.3281 11.9834 16.1776 11.7901 15.9415 11.6399ZM12.9142 13.8944H11.2395V13.2931H12.8927V12.6706H11.2395V12.1338H12.9142V11.5112H10.5096V14.5171H12.9142V13.8944ZM9.97278 11.5111H8.79196L7.91167 13.5507L6.96695 11.5111H5.80761V14.3451L4.58384 11.5111H3.51041L2.2222 14.5169H2.99509L3.27415 13.8512H4.77698L5.05604 14.5169H6.51607V12.1553L7.56803 14.5169H8.19057L9.24268 12.1553V14.5169H9.97262V11.5111H9.97278ZM21.6098 13.2072L21.1158 12.0264L20.6221 13.2072H21.6098ZM15.3833 12.735C15.2761 12.7994 15.1687 12.7994 15.0184 12.7994H14.1379V12.1339H15.0182C15.1471 12.1339 15.2971 12.1339 15.3832 12.1769C15.4689 12.2413 15.5121 12.3272 15.5121 12.456C15.5121 12.5847 15.4691 12.6919 15.3833 12.735V12.735ZM3.53173 13.2072L4.02557 12.0264L4.51941 13.2072H3.53173V13.2072ZM27.8146 2.08569H2.20057V12.9067L3.08085 10.91H4.94865L5.20639 11.4038V10.91H7.39636L7.89019 11.9834L8.36255 10.91H15.3404C15.6622 10.91 15.9413 10.9744 16.1562 11.1461V10.91H18.067V11.1461C18.3889 10.9743 18.7968 10.91 19.2693 10.91H22.0389L22.2966 11.4038V10.91H24.3362L24.6369 11.4038V10.91H26.6334V15.1181H24.6154L24.2291 14.4741V15.1181H21.717L21.4379 14.4311H20.8151L20.536 15.1181H19.2265C18.7112 15.1181 18.3246 14.9893 18.0672 14.8605V15.1181H14.9539V14.1519C14.9539 14.0231 14.9325 14.0016 14.8466 14.0016H14.7393V15.118H8.72752V14.5812L8.5129 15.118H7.24617L7.03154 14.6027V15.118H4.60532L4.34774 14.431H3.72503L3.44598 15.118H2.20057V27.8069H27.8146V20.099C27.5355 20.2278 27.1489 20.2923 26.7624 20.2923H24.8945V20.0345C24.6799 20.2065 24.2933 20.2923 23.9284 20.2923H18.0455V19.3262C18.0455 19.1974 18.0242 19.1974 17.9167 19.1974H17.8094V20.2923H15.877V19.1544C15.5552 19.3046 15.19 19.3046 14.868 19.3046H14.6533V20.2923H12.2916L11.7335 19.6481L11.1109 20.2923H7.31045V16.0843H11.1751L11.7333 16.7282L12.3346 16.0843H14.9325C15.2328 16.0843 15.7268 16.1271 15.9415 16.3417V16.0843H18.2601C18.4964 16.0843 18.9474 16.1271 19.2478 16.3417V16.0843H22.7475V16.3419C22.9408 16.1701 23.3059 16.0845 23.6278 16.0845H25.5815V16.3419C25.7964 16.1917 26.0968 16.0845 26.4834 16.0845H27.8146V2.08569V2.08569Z" fill="#131313"/>
</g>
<defs>
<clipPath id="clip0_520_198">
<rect width="30" height="30" fill="white"/>
</clipPath>
</defs>
</svg>
