<svg width="72" height="12" viewBox="0 0 72 12" fill="none" xmlns="http://www.w3.org/2000/svg">
<path fill-rule="evenodd" clip-rule="evenodd" d="M0 0.184633H3.10328C3.68198 0.184633 4.26029 0.237274 4.78596 0.316239C7.52074 0.710683 9.67721 2.15723 9.67721 5.99638C9.67721 9.80958 7.52074 11.2817 4.78596 11.6498C4.26029 11.7288 3.6816 11.7547 3.10328 11.7547H0V0.184633ZM70.37 1.94628C70.7904 1.94628 71.1062 1.6308 71.1062 1.15739C71.1062 0.684362 70.7904 0.34218 70.37 0.34218C69.9488 0.34218 69.633 0.68398 69.633 1.15739C69.633 1.6308 69.9488 1.94628 70.37 1.94628ZM70.37 0.158312C70.5012 0.158262 70.6311 0.184068 70.7524 0.234259C70.8736 0.28445 70.9838 0.35804 71.0766 0.450822C71.1693 0.543605 71.2429 0.653762 71.2931 0.774998C71.3433 0.896235 71.3691 1.02617 71.3691 1.15739C71.3692 1.28864 71.3434 1.41861 71.2932 1.53989C71.2431 1.66118 71.1695 1.77138 71.0767 1.8642C70.9839 1.95703 70.8737 2.03065 70.7525 2.08086C70.6312 2.13108 70.5012 2.1569 70.37 2.15685C70.2388 2.15685 70.1088 2.131 69.9876 2.08078C69.8663 2.03057 69.7562 1.95696 69.6634 1.86417C69.5706 1.77138 69.497 1.66122 69.4468 1.53998C69.3966 1.41875 69.3707 1.28881 69.3707 1.15758C69.3707 1.02635 69.3966 0.896413 69.4468 0.775176C69.497 0.653939 69.5706 0.543779 69.6634 0.450988C69.7562 0.358198 69.8663 0.284593 69.9876 0.234375C70.1088 0.184157 70.2388 0.158312 70.37 0.158312V0.158312ZM70.37 1.31532L70.317 1.23635H70.1857V1.70976H69.9748V0.579076H70.4219C70.6847 0.579076 70.843 0.684364 70.843 0.920877C70.843 1.10475 70.711 1.21003 70.5272 1.23635L70.843 1.70976H70.6061L70.37 1.31532ZM70.37 0.737006H70.3959C70.5008 0.737006 70.6061 0.763328 70.6061 0.894936C70.6061 1.05287 70.5012 1.0788 70.3959 1.0788H70.1861V0.737006H70.37ZM63.0594 5.10182C63.9273 4.99654 64.6368 4.62841 64.6368 3.52405C64.6368 2.47233 63.9277 2.18279 63.0594 2.05156H61.4813V5.15485H62.2175C62.5071 5.15485 62.7962 5.12815 63.0594 5.10182V5.10182ZM63.0594 0.210955C65.1106 0.28992 67.0039 0.710683 67.0039 3.34018C67.0039 4.70776 66.136 5.83845 64.6898 6.02232C65.2949 6.10128 65.663 6.7063 65.8732 7.23235L67.6882 11.7547H65.1633L63.7961 8.12614C63.5859 7.60009 63.402 7.28423 63.0598 7.10036C62.8759 6.99546 62.5868 6.94243 62.2179 6.94243H61.4817V11.7547H59.2203V0.184633H61.6655C62.1122 0.184633 62.6124 0.184634 63.0594 0.210955ZM41.9956 3.65566C42.2585 4.33926 42.3897 5.10221 42.3897 5.97006C42.3897 6.78527 42.2585 7.57415 41.9956 8.28407C41.1804 10.5184 39.2082 11.9653 36.5001 11.9653C32.8712 11.9653 30.5568 9.49334 30.5568 5.96967C30.5568 2.4193 32.9234 0.000381264 36.5001 0.000381264C39.2082 0.000381264 41.1804 1.42061 41.9956 3.65566V3.65566ZM41.9956 1.21003L45.9931 11.7547H46.8342L51.2784 0.184633H48.9114L46.5451 6.28515L44.0209 0.184633H41.6016L41.9956 1.21003V1.21003ZM51.8571 0.184633H58.5886V2.05156H54.1444V4.89163H58.1937V6.67921H54.1448V9.94043H58.6153V11.7547H51.8575V0.184633H51.8571V0.184633ZM4.78596 2.23581C4.39152 2.10421 3.97075 2.05156 3.55037 2.05156H2.26175V9.94043H3.55037C3.97114 9.94043 4.3919 9.86146 4.78596 9.73024C6.17987 9.23013 7.31055 7.94189 7.31055 5.99599C7.31093 4.0501 6.17987 2.70884 4.78596 2.23581V2.23581ZM10.5714 0.184633H12.8591V11.7547H10.5714V0.184633ZM20.196 3.26121C19.4071 2.76148 18.5659 2.26175 17.6717 2.15685C16.8565 2.05156 15.9887 2.28808 15.9887 3.44508C15.9887 5.44362 20.9852 4.60209 20.9852 8.46794C20.9852 10.9922 18.9867 12.2281 16.699 11.9653C15.463 11.8333 14.7531 11.4652 13.78 10.8083V8.44124C14.5429 8.86239 15.6732 9.67721 16.5674 9.83514C17.5405 9.99307 18.5922 9.70315 18.5922 8.65181C18.5922 6.41676 13.6224 7.33687 13.6224 3.52367C13.6224 0.946816 15.5683 0 17.5668 0C18.5663 0 19.4338 0.36812 20.1963 1.05172V3.26121H20.196V3.26121ZM29.9781 10.5977C29.3994 11.3347 28.0322 11.7547 27.1117 11.8337C23.5617 12.0706 21.195 10.0984 21.195 6.18025C21.195 2.23581 23.2725 -0.078202 27.1117 0.132371C27.8742 0.158693 29.1102 0.421526 29.9254 1.10513V3.31424C28.9523 2.7096 27.9532 2.28884 27.1117 2.26252C24.7713 2.18355 23.5617 3.65604 23.5617 6.0227C23.5617 8.38974 24.6924 9.70391 27.1117 9.59901C28.0581 9.57307 29.4783 8.81012 29.9781 8.38974V10.5977V10.5977Z" fill="#9F9E9E"/>
</svg>
