<svg width="48" height="30" viewBox="0 0 48 30" fill="none" xmlns="http://www.w3.org/2000/svg">
<path fill-rule="evenodd" clip-rule="evenodd" d="M45.7835 30C46.2826 29.9999 46.7612 29.8015 47.114 29.4486C47.4669 29.0957 47.6651 28.6171 47.6652 28.118V1.88168C47.6652 1.38263 47.467 0.904014 47.1141 0.551131C46.7612 0.198248 46.2826 0 45.7835 0H1.88168C1.63457 0 1.38989 0.0486716 1.16159 0.143235C0.933296 0.237798 0.725861 0.376401 0.551131 0.551131C0.376401 0.725861 0.237797 0.933296 0.143234 1.16159C0.0486711 1.38989 0 1.63457 0 1.88168V28.1178C7.18892e-05 28.6168 0.198334 29.0954 0.551194 29.4483C0.904054 29.8012 1.38262 29.9996 1.88168 29.9997H45.7835V30V30Z" fill="#274D94"/>
<path fill-rule="evenodd" clip-rule="evenodd" d="M45.7125 29.4774C46.0917 29.4774 46.4553 29.3267 46.7234 29.0587C46.9915 28.7906 47.1421 28.4269 47.1421 28.0478V1.92642C47.1421 1.54725 46.9915 1.18361 46.7234 0.915468C46.4553 0.647329 46.0917 0.496654 45.7125 0.496582H1.9262C1.73841 0.496546 1.55245 0.533504 1.37894 0.605344C1.20544 0.677184 1.04778 0.782499 0.914979 0.915275C0.782178 1.04805 0.676833 1.20569 0.60496 1.37918C0.533087 1.55267 0.496094 1.73863 0.496094 1.92642V28.0475C0.496129 28.2353 0.533149 28.4212 0.605038 28.5947C0.676927 28.7681 0.782277 28.9257 0.915075 29.0585C1.04787 29.1912 1.20552 29.2965 1.37901 29.3684C1.5525 29.4402 1.73843 29.4771 1.9262 29.4771H45.7125V29.4774V29.4774Z" fill="#D0D1D3"/>
<path fill-rule="evenodd" clip-rule="evenodd" d="M10.3295 17.2164H12.0585C13.597 17.2164 14.012 18.2934 14.012 18.9961C14.012 20.3473 13.0918 21.4544 11.1247 21.4544H9.43202V21.3473C9.75992 21.2868 9.86027 21.2667 9.97391 20.852L10.7707 18.0254C10.7908 17.9519 10.8442 17.7447 10.8442 17.6107C10.8442 17.3835 10.6704 17.3501 10.3292 17.323V17.2164H10.3295V17.2164ZM15.4692 20.7655C15.2083 21.1601 14.9141 21.5282 14.5392 21.5282C14.2249 21.5282 14.2249 21.2336 14.2249 21.1135C14.2249 20.7989 14.7535 19.1398 14.7535 18.9522C14.7535 18.8117 14.7001 18.7783 14.332 18.7783V18.6712C14.5864 18.6574 15.1416 18.5505 15.4025 18.5039L15.4226 18.5171L14.834 20.6714C14.8072 20.7652 14.7269 21.0326 14.7269 21.1132C14.7269 21.1598 14.7736 21.2133 14.834 21.2133C14.9143 21.2133 15.1082 21.0798 15.3824 20.6915L15.4692 20.7655V20.7655ZM15.3355 17.7884C15.1685 17.7884 15.0144 17.6745 15.0144 17.4404C15.0144 17.2064 15.1685 17.0792 15.329 17.0792C15.5498 17.0792 15.6634 17.2999 15.6634 17.4472C15.6634 17.5809 15.5566 17.7884 15.3355 17.7884ZM18.6134 20.7585C18.279 21.2065 18.0447 21.5149 17.6834 21.5149C17.3756 21.5149 17.3623 21.3136 17.3623 21.1197C17.3623 20.9592 17.8573 19.3273 17.8573 19.0596C17.8573 18.9389 17.8171 18.845 17.6899 18.845C17.3685 18.845 16.9473 19.4203 16.7065 19.7948C16.3987 20.2567 16.3116 20.5445 16.0374 21.4544H15.5357C15.7432 20.6985 16.1912 19.1325 16.1912 18.9923C16.1912 18.8917 16.1242 18.8179 15.763 18.8179V18.7113C16.1242 18.6441 16.4855 18.5774 16.8467 18.5036L16.8668 18.5169L16.4388 19.9152L16.4521 19.9285C16.7664 19.4338 17.3818 18.5036 17.9373 18.5036C18.2451 18.5036 18.3991 18.6641 18.3991 18.9454C18.3991 19.2331 17.8638 20.8851 17.8638 21.0861C17.8638 21.1867 17.9573 21.2 17.9709 21.2C18.1046 21.2 18.272 20.986 18.5196 20.6714L18.6134 20.7585V20.7585ZM20.9751 20.8056C20.9016 20.9128 20.2928 21.5282 19.6237 21.5282C18.9212 21.5282 18.7072 21.0063 18.7072 20.5846C18.7072 19.628 19.7642 18.5039 20.7077 18.5039C21.0489 18.5039 21.2561 18.6644 21.2561 18.959C21.2561 19.4875 20.6272 20.0294 19.5434 20.1832L19.3563 20.2103C19.3226 20.3508 19.2893 20.4843 19.2893 20.6182C19.2893 21.0733 19.6372 21.2268 19.9182 21.2268C20.2795 21.2268 20.5604 20.9996 20.8951 20.7251L20.9751 20.8056V20.8056ZM21.1954 21.4547L21.7372 19.5011C21.804 19.2538 21.8444 19.0259 21.8444 18.9655C21.8444 18.8722 21.811 18.7653 21.6035 18.7653C21.53 18.7653 21.4563 18.7848 21.3828 18.7987V18.6848C21.724 18.6381 22.1188 18.5508 22.4196 18.5041L22.4397 18.5174L22.1121 19.8491L22.1254 19.8624L22.1788 19.7284C22.3995 19.2871 22.9081 18.5041 23.3295 18.5041C23.4836 18.5041 23.6507 18.6047 23.6507 18.832C23.6507 19.18 23.4098 19.18 23.3363 19.18C23.0486 19.18 23.1489 18.9389 22.9884 18.9389C22.7809 18.9389 22.3797 19.6815 22.3263 19.7821C22.0719 20.2635 21.9784 20.5645 21.7042 21.4544H21.1954V21.4547V21.4547ZM23.3474 20.4777C23.3941 20.7723 23.5012 21.3874 24.0428 21.3874C24.4174 21.3874 24.5248 21.0663 24.5248 20.8461C24.5248 20.4042 23.7285 19.7623 23.7285 19.247C23.7285 19.0398 23.8223 18.5044 24.531 18.5044C24.8318 18.5044 24.966 18.6183 25.1667 18.6183C25.2806 18.6183 25.3208 18.551 25.3541 18.4976H25.4474L25.314 19.4279H25.2069C25.1735 19.0466 25.013 18.6582 24.5782 18.6582C24.4309 18.6582 24.2169 18.7187 24.2169 19.0466C24.2169 19.4683 25.0328 20.0636 25.0328 20.6321C25.0328 21.3614 24.4109 21.529 24.0358 21.529C23.8356 21.529 23.5677 21.4018 23.374 21.4018C23.2804 21.4018 23.2536 21.4685 23.2135 21.5423H23.1063L23.2403 20.4786H23.3474V20.4777V20.4777ZM30.7052 18.3235C30.6919 18.1366 30.6317 17.2397 29.6748 17.2397C28.3367 17.2397 27.6546 18.8586 27.6546 19.8423C27.6546 20.7189 28.0221 21.274 28.8184 21.274C29.5748 21.274 30.0426 20.7989 30.364 20.4843L30.4779 20.5781C30.23 20.8726 29.6347 21.5751 28.6578 21.5751C27.8819 21.5751 26.9049 21.1067 26.9049 19.7688C26.9049 18.4773 28.0893 16.9989 29.6214 16.9989C30.1028 16.9989 30.5113 17.1595 30.665 17.1595C30.8595 17.1595 30.8991 17.0794 30.9325 17.0127H31.0735L30.8256 18.3438L30.7052 18.3235V18.3235ZM32.2243 20.6917C31.8831 21.2065 31.6224 21.5282 31.2072 21.5282C30.9132 21.5282 30.8861 21.3003 30.8861 21.1135C30.8861 20.9724 31.8559 17.4806 31.8559 17.3398C31.8559 17.166 31.5752 17.166 31.4014 17.173V17.0659C31.7523 17.0251 32.1008 16.9647 32.445 16.8853L32.4784 16.9186L31.4681 20.7918C31.4548 20.8523 31.4014 21.0329 31.4014 21.1064C31.4014 21.1466 31.4014 21.2404 31.5015 21.2404C31.6688 21.2404 31.8093 21.053 32.1372 20.6313L32.2243 20.6917V20.6917ZM35.2564 20.7321C34.8352 21.3407 34.6611 21.5151 34.3267 21.5151C34.0259 21.5151 34.0121 21.2672 34.0121 21.1672C34.0121 21.0465 34.1461 20.4843 34.2998 19.9361H34.2798C33.8252 20.692 33.33 21.5284 32.7276 21.5284C32.4871 21.5284 32.3601 21.4278 32.3601 21.1333C32.3601 20.8393 32.8681 19.1531 32.8681 18.9725C32.8681 18.7786 32.7409 18.7786 32.467 18.7786V18.6848C32.8046 18.6442 33.1396 18.5839 33.4702 18.5041L33.4903 18.5174L32.8817 20.9461C32.8616 21.0329 32.8817 21.1734 33.0222 21.1734C33.3099 21.1734 33.7314 20.5447 33.9587 20.1965C34.2866 19.7018 34.4338 19.2801 34.6945 18.5643H35.1897L34.6611 20.5645C34.6215 20.6985 34.5339 20.9925 34.5339 21.0931C34.5339 21.1265 34.5407 21.2003 34.6145 21.2003C34.7417 21.2003 34.9291 20.9662 35.1631 20.6717L35.2564 20.7321V20.7321ZM35.8721 17.0388C36.215 16.9996 36.5565 16.9484 36.8959 16.8853L36.9293 16.9186C36.7467 17.6054 36.554 18.2895 36.3513 18.9706L36.3646 18.9774C36.5854 18.6294 36.9287 18.2945 37.5311 18.2945C37.9989 18.2945 38.3008 18.8247 38.3008 19.3132C38.3008 20.3703 37.1837 21.5279 36.1596 21.5279C35.8051 21.5279 35.2903 21.3201 35.2903 21.1729V21.1463L36.2 17.7944C36.2472 17.6075 36.3071 17.4399 36.3071 17.3463C36.3071 17.1928 36.2604 17.1589 35.8721 17.1524V17.0388V17.0388ZM8.07324 26.4954C8.40087 26.4355 8.50149 26.4154 8.61513 26.0007L9.41195 23.2002C9.45209 23.0667 9.48545 22.9062 9.48545 22.7855C9.48545 22.5514 9.30482 22.5311 9.01706 22.4977V22.3906H10.6696V22.4977C10.3419 22.5582 10.2348 22.5712 10.1209 22.993L9.32408 25.8C9.28394 25.9335 9.25058 26.0675 9.25058 26.228C9.25058 26.442 9.41792 26.4621 9.70568 26.4954V26.6028H8.07324V26.4954V26.4954ZM13.2106 25.9069C12.8762 26.3549 12.6418 26.6628 12.2808 26.6628C11.973 26.6628 11.9595 26.4621 11.9595 26.2682C11.9595 26.1076 12.4547 24.4752 12.4547 24.2075C12.4547 24.0873 12.4143 23.9935 12.2874 23.9935C11.9662 23.9935 11.5448 24.5687 11.3039 24.9433C10.9961 25.4052 10.909 25.6929 10.6349 26.6028H10.1331C10.3406 25.8464 10.7886 24.281 10.7886 24.1408C10.7886 24.0401 10.7216 23.9664 10.3607 23.9664V23.8592C10.7219 23.7925 11.0832 23.7253 11.4444 23.652L11.4645 23.6653L11.0362 25.0637L11.0495 25.077C11.3639 24.5817 11.9795 23.652 12.5347 23.652C12.8425 23.652 12.9963 23.8126 12.9963 24.0933C12.9963 24.381 12.4612 26.0336 12.4612 26.2345C12.4612 26.3346 12.5548 26.3479 12.5683 26.3479C12.702 26.3479 12.8694 26.1339 13.1167 25.8198L13.2106 25.9069V25.9069ZM14.9916 23.9533H14.4297L13.8409 26.1814C13.8344 26.2014 13.8344 26.2147 13.8344 26.2348C13.8344 26.2947 13.868 26.3482 13.9415 26.3482C14.0755 26.3482 14.3095 26.0341 14.4769 25.8201L14.5639 25.8668C14.2227 26.3821 13.9618 26.6761 13.6139 26.6761C13.4802 26.6761 13.2927 26.6093 13.2927 26.4086C13.2927 26.3086 13.4199 25.9001 13.4465 25.793L13.9282 23.9533H13.433C13.4265 23.9132 13.4265 23.8798 13.4465 23.8462C13.4864 23.7857 13.6738 23.7391 13.7877 23.6789C14.0085 23.565 14.3296 23.2642 14.517 23.0299C14.5439 22.9965 14.5704 22.936 14.6306 22.9493C14.6776 22.936 14.6908 22.9965 14.6776 23.0499L14.4904 23.7391H15.0255L14.9916 23.9533V23.9533ZM17.0653 25.9535C16.9916 26.0607 16.3827 26.6761 15.7139 26.6761C15.0112 26.6761 14.7972 26.1542 14.7972 25.733C14.7972 24.7765 15.8541 23.6523 16.7974 23.6523C17.1386 23.6523 17.346 23.8129 17.346 24.1074C17.346 24.6354 16.7171 25.1773 15.6333 25.3317L15.4459 25.3582C15.4125 25.4993 15.3792 25.6327 15.3792 25.7667C15.3792 26.2218 15.7269 26.3753 16.0079 26.3753C16.3691 26.3753 16.6501 26.148 16.9848 25.8735L17.0653 25.9535V25.9535ZM17.3113 26.6028L17.8532 24.6493C17.9202 24.4014 17.9606 24.1741 17.9606 24.1136C17.9606 24.0198 17.927 23.9129 17.7198 23.9129C17.6463 23.9129 17.5728 23.933 17.499 23.9463V23.8329C17.8402 23.7857 18.2348 23.6989 18.5358 23.6523L18.5559 23.6656L18.2283 24.9967L18.2416 25.0105L18.295 24.8766C18.5158 24.4347 19.024 23.6523 19.4455 23.6523C19.5993 23.6523 19.7669 23.7524 19.7669 23.9802C19.7669 24.3276 19.526 24.3276 19.4523 24.3276C19.1645 24.3276 19.2649 24.0871 19.1043 24.0871C18.8968 24.0871 18.4954 24.8296 18.442 24.9297C18.1879 25.4111 18.094 25.7127 17.8198 26.6026H17.3113V26.6028V26.6028ZM22.6789 25.9069C22.3445 26.3549 22.1102 26.6628 21.7489 26.6628C21.4411 26.6628 21.4275 26.4621 21.4275 26.2682C21.4275 26.1076 21.9228 24.4752 21.9228 24.2075C21.9228 24.0873 21.8826 23.9935 21.7554 23.9935C21.4343 23.9935 21.0128 24.5687 20.772 24.9433C20.4644 25.4052 20.3774 25.6929 20.1032 26.6028H19.6012C19.8086 25.8464 20.257 24.281 20.257 24.1408C20.257 24.0401 20.19 23.9664 19.8287 23.9664V23.8592C20.19 23.7925 20.5512 23.7253 20.9125 23.652L20.9326 23.6653L20.5043 25.0637L20.5179 25.077C20.8322 24.5817 21.4479 23.652 22.003 23.652C22.3109 23.652 22.4649 23.8126 22.4649 24.0933C22.4649 24.381 21.9295 26.0336 21.9295 26.2345C21.9295 26.3346 22.0231 26.3479 22.0367 26.3479C22.1704 26.3479 22.3377 26.1339 22.5851 25.8198L22.6789 25.9069V25.9069ZM25.7496 25.9332C25.3482 26.4284 25.1204 26.6696 24.8326 26.6696C24.5519 26.6696 24.5519 26.4952 24.5519 26.3818C24.5519 26.2277 24.5853 26.0805 24.6924 25.6726L24.6791 25.6593C24.1239 26.4751 23.7694 26.6758 23.368 26.6758C22.699 26.6758 22.6789 26.0805 22.6789 25.8866C22.6789 24.9029 23.7025 23.6523 24.5923 23.6523C24.8801 23.6523 25.1003 23.8261 25.1204 24.0136H25.1342L25.2009 23.719L25.221 23.6989L25.6289 23.6523L25.6761 23.6724C25.656 23.7524 25.0404 26.0338 25.0404 26.241C25.0404 26.2882 25.0805 26.3284 25.1342 26.3284C25.2343 26.3284 25.3682 26.161 25.6693 25.8665L25.7496 25.9332V25.9332ZM27.4384 23.9533H26.877L26.2879 26.1814C26.2812 26.2014 26.2812 26.2147 26.2812 26.2348C26.2812 26.2947 26.3151 26.3482 26.3883 26.3482C26.5223 26.3482 26.7563 26.0341 26.9239 25.8201L27.0107 25.8668C26.6695 26.3821 26.4084 26.6761 26.0609 26.6761C25.9269 26.6761 25.7393 26.6093 25.7393 26.4086C25.7393 26.3086 25.867 25.9001 25.8933 25.793L26.3747 23.9533H25.88C25.8732 23.9132 25.8732 23.8798 25.8933 23.8462C25.9335 23.7857 26.1206 23.7391 26.2345 23.6789C26.4553 23.565 26.7764 23.2642 26.9638 23.0299C26.9904 22.9965 27.0172 22.936 27.0772 22.9493C27.1244 22.936 27.1376 22.9965 27.1244 23.0499L26.9369 23.7391H27.4726L27.4384 23.9533V23.9533ZM28.8441 25.9137C28.5829 26.3083 28.2889 26.6761 27.9139 26.6761C27.5998 26.6761 27.5998 26.3821 27.5998 26.2614C27.5998 25.9473 28.1284 24.2883 28.1284 24.1006C28.1284 23.9601 28.075 23.9268 27.7067 23.9268V23.8196C27.9611 23.8058 28.516 23.6989 28.7771 23.6523L28.7967 23.6656L28.2081 25.8198C28.1815 25.9137 28.101 26.1811 28.101 26.2611C28.101 26.3083 28.1476 26.3617 28.2081 26.3617C28.2887 26.3617 28.4826 26.2277 28.7568 25.8399L28.8441 25.9137V25.9137ZM28.7101 22.9363C28.5433 22.9363 28.389 22.8224 28.389 22.5889C28.389 22.3548 28.5431 22.2276 28.7036 22.2276C28.9244 22.2276 29.0378 22.4478 29.0378 22.5951C29.038 22.7291 28.9312 22.9363 28.7101 22.9363ZM31.8958 24.6425C31.8958 25.4651 30.9794 26.6761 29.9556 26.6761C29.2463 26.6761 28.9453 26.2682 28.9453 25.713C28.9453 24.7293 29.9352 23.6523 30.9121 23.6523C31.6889 23.6523 31.8958 24.2007 31.8958 24.6425Z" fill="#274D94"/>
<path fill-rule="evenodd" clip-rule="evenodd" d="M34.785 25.9068C34.4509 26.3548 34.2166 26.6627 33.8548 26.6627C33.5475 26.6627 33.5337 26.462 33.5337 26.268C33.5337 26.1075 34.0289 24.4751 34.0289 24.2074C34.0289 24.0872 33.9887 23.9934 33.8615 23.9934C33.5404 23.9934 33.119 24.5686 32.8779 24.9432C32.57 25.405 32.4832 25.6928 32.2088 26.6027H31.707C31.9148 25.8463 32.3628 24.2809 32.3628 24.1406C32.3628 24.04 32.2961 23.9663 31.9348 23.9663V23.8591C32.2961 23.7924 32.6574 23.7251 33.0186 23.6519L33.0381 23.6652L32.6102 25.0636L32.624 25.0769C32.9381 24.5816 33.5537 23.6519 34.1089 23.6519C34.4167 23.6519 34.5708 23.8125 34.5708 24.0932C34.5708 24.3809 34.0351 26.0334 34.0351 26.2344C34.0351 26.3345 34.129 26.3478 34.1423 26.3478C34.2762 26.3478 34.4436 26.1338 34.6909 25.8197L34.785 25.9068V25.9068ZM37.8817 25.9331C37.4806 26.4283 37.2531 26.6694 36.9653 26.6694C36.6846 26.6694 36.6846 26.4951 36.6846 26.3817C36.6846 26.2276 36.718 26.0804 36.8251 25.6725L36.8118 25.6592C36.2561 26.475 35.9019 26.6757 35.5002 26.6757C34.8311 26.6757 34.8111 26.0804 34.8111 25.8864C34.8111 24.9028 35.8349 23.6522 36.7245 23.6522C37.0125 23.6522 37.2335 23.826 37.2531 24.0135H37.2669L37.3336 23.7189L37.3537 23.6988L37.7616 23.6522L37.8082 23.6723C37.7887 23.7523 37.1731 26.0337 37.1731 26.2409C37.1731 26.2881 37.2132 26.3283 37.2669 26.3283C37.367 26.3283 37.501 26.1609 37.802 25.8664L37.8817 25.9331V25.9331ZM39.1583 26.0226C38.8172 26.5374 38.687 26.6757 38.272 26.6757C37.9775 26.6757 37.9504 26.4484 37.9504 26.261C37.9504 26.1205 38.9208 22.6281 38.9208 22.4879C38.9208 22.314 38.6395 22.314 38.4657 22.3205V22.2134C38.8167 22.1731 39.1652 22.1128 39.5093 22.0328L39.5427 22.0661L38.5324 25.9399C38.5191 26.0004 38.4657 26.181 38.4657 26.2545C38.4657 26.2941 38.4657 26.3879 38.5657 26.3879C38.7331 26.3879 38.7431 26.3836 39.071 25.9621L39.1583 26.0226ZM39.6387 22.5107C39.6387 22.179 39.9077 21.9343 40.2256 21.9343C40.5407 21.9343 40.8098 22.179 40.8098 22.5107C40.8098 22.8453 40.5407 23.0902 40.2256 23.0902C39.9077 23.0902 39.6387 22.8456 39.6387 22.5107Z" fill="#274D94"/>
<path fill-rule="evenodd" clip-rule="evenodd" d="M40.2257 22.9941C40.4874 22.9941 40.6936 22.789 40.6936 22.5111C40.6936 22.2377 40.4874 22.031 40.2257 22.031C39.9613 22.031 39.7549 22.2377 39.7549 22.5111C39.7549 22.789 39.9615 22.9941 40.2257 22.9941Z" fill="#D0D1D3"/>
<path fill-rule="evenodd" clip-rule="evenodd" d="M40.1031 22.8458H40.0024V22.1794H40.2563C40.4136 22.1794 40.4914 22.2378 40.4914 22.369C40.4914 22.4881 40.4169 22.5402 40.3187 22.5524L40.5083 22.8458H40.3954L40.2197 22.5572H40.1031V22.8458V22.8458Z" fill="#274D94"/>
<path fill-rule="evenodd" clip-rule="evenodd" d="M40.2232 22.471C40.3089 22.471 40.3854 22.4648 40.3854 22.3626C40.3854 22.2798 40.3108 22.2646 40.2403 22.2646H40.1025V22.4713H40.2232V22.471V22.471Z" fill="#D0D1D3"/>
<path fill-rule="evenodd" clip-rule="evenodd" d="M27.6999 15.7091C31.3534 15.7091 34.3151 12.7475 34.3151 9.09395C34.3151 5.44044 31.3534 2.47852 27.6999 2.47852H19.3376C15.6841 2.47852 12.7222 5.44044 12.7222 9.09395C12.7222 12.7475 15.6841 15.7091 19.3376 15.7091H27.6999Z" fill="#274D94"/>
<path fill-rule="evenodd" clip-rule="evenodd" d="M19.3382 15.5612C22.9098 15.5612 25.8059 12.6655 25.8059 9.09385C25.8059 5.52197 22.9101 2.62622 19.3382 2.62622C15.7664 2.62622 12.8706 5.52197 12.8706 9.09385C12.8706 12.6655 15.7661 15.5612 19.3382 15.5612V15.5612Z" fill="#D0D1D3"/>
<path fill-rule="evenodd" clip-rule="evenodd" d="M18.0327 5.36011C16.4903 5.89955 15.3838 7.36763 15.3838 9.09417C15.3838 10.8234 16.4941 12.2937 18.0409 12.8307L18.0327 5.36011V5.36011ZM23.2926 9.09417C23.2926 10.8234 22.1826 12.2937 20.6356 12.8307L20.6437 5.36038C22.1861 5.89955 23.2926 7.36763 23.2926 9.09417Z" fill="#274D94"/>
<path fill-rule="evenodd" clip-rule="evenodd" d="M10.77 20.371C10.7098 20.5912 10.623 20.8858 10.623 20.9929C10.623 21.2137 10.7836 21.2541 11.0979 21.2541C13.2055 21.2541 13.2693 19.3244 13.2693 18.9159C13.2693 18.2401 13.1725 17.4175 11.9883 17.4175C11.607 17.4175 11.5804 17.5176 11.5536 17.6114L10.77 20.371V20.371ZM19.4028 20.0632C20.7811 19.7825 20.8144 18.9794 20.8144 18.926C20.8144 18.7849 20.7474 18.658 20.5801 18.658C20.2188 18.658 19.764 19.1733 19.5164 19.7689L19.4028 20.0632ZM37.2698 18.6493C36.5334 18.6493 35.9576 19.9653 35.8654 21.1532C35.8616 21.2004 35.8654 21.3739 36.1795 21.3739C37.0965 21.3739 37.7316 19.9623 37.7316 19.4003C37.7316 19.1934 37.6915 18.6493 37.2698 18.6493V18.6493ZM15.493 25.2108C16.871 24.9301 16.9043 24.127 16.9043 24.0736C16.9043 23.9331 16.8376 23.8062 16.6703 23.8062C16.3088 23.8062 15.8539 24.3215 15.6066 24.9171L15.493 25.2108ZM23.6421 26.3483C24.3511 26.3483 25.0069 24.9032 25.0069 24.248C25.0069 23.9269 24.8194 23.7999 24.6255 23.7999C23.8428 23.7999 23.2407 25.2715 23.2407 25.8736C23.2407 26.2278 23.4612 26.3483 23.6421 26.3483ZM29.5074 25.9138C29.5074 26.2946 29.7081 26.5357 30.0425 26.5357C30.8051 26.5357 31.334 25.1511 31.334 24.4349C31.334 24.0874 31.1867 23.7929 30.8656 23.7929C30.116 23.7929 29.5074 25.124 29.5074 25.9138ZM35.7738 26.3483C36.483 26.3483 37.1388 24.9032 37.1388 24.248C37.1388 23.9269 36.9514 23.7999 36.7574 23.7999C35.9745 23.7999 35.3724 25.2715 35.3724 25.8736C35.3724 26.2278 35.5931 26.3483 35.7738 26.3483V26.3483Z" fill="#D0D1D3"/>
</svg>
