<svg width="39" height="30" viewBox="0 0 39 30" fill="none" xmlns="http://www.w3.org/2000/svg">
<path d="M38.9524 23.9524C38.9524 27.2857 36.2381 30 32.9048 30H0V6.04762C0 2.71429 2.71429 0 6.04762 0H38.9524V23.9524Z" fill="white"/>
<path d="M28.2378 17.8094H30.7378C30.8092 17.8094 30.9759 17.7856 31.0473 17.7856C31.5235 17.6903 31.9283 17.2618 31.9283 16.6665C31.9283 16.0951 31.5235 15.6665 31.0473 15.5475C30.9759 15.5237 30.833 15.5237 30.7378 15.5237H28.2378V17.8094Z" fill="url(#paint0_linear_520_255)"/>
<path d="M30.4528 2.02368C28.0719 2.02368 26.1195 3.95225 26.1195 6.35702V10.857H32.2386C32.3814 10.857 32.5481 10.857 32.6671 10.8808C34.0481 10.9523 35.0719 11.6665 35.0719 12.9046C35.0719 13.8808 34.3814 14.7142 33.0957 14.8808V14.9284C34.5005 15.0237 35.5719 15.8094 35.5719 17.0237C35.5719 18.3332 34.3814 19.1903 32.81 19.1903H26.0957V27.9999H32.4528C34.8338 27.9999 36.7862 26.0713 36.7862 23.6665V2.02368H30.4528Z" fill="url(#paint1_linear_520_255)"/>
<path d="M31.6187 13.1904C31.6187 12.619 31.214 12.2381 30.7378 12.1666C30.6902 12.1666 30.5711 12.1428 30.4997 12.1428H28.2378V14.2381H30.4997C30.5711 14.2381 30.714 14.2381 30.7378 14.2143C31.214 14.1428 31.6187 13.7619 31.6187 13.1904V13.1904Z" fill="url(#paint2_linear_520_255)"/>
<path d="M6.50021 2.02368C4.11926 2.02368 2.16688 3.95225 2.16688 6.35702V17.0475C3.38116 17.6427 4.64307 18.0237 5.90497 18.0237C7.40497 18.0237 8.2145 17.1189 8.2145 15.8808V10.8332H11.9288V15.857C11.9288 17.8094 10.7145 19.4046 6.59545 19.4046C4.09545 19.4046 2.14307 18.857 2.14307 18.857V27.9761H8.50021C10.8812 27.9761 12.8335 26.0475 12.8335 23.6427V2.02368H6.50021Z" fill="url(#paint3_linear_520_255)"/>
<path d="M18.4759 2.02368C16.095 2.02368 14.1426 3.95225 14.1426 6.35702V12.0237C15.2378 11.0951 17.1426 10.4999 20.214 10.6427C21.8569 10.7142 23.6188 11.1665 23.6188 11.1665V12.9999C22.7378 12.5475 21.6902 12.1427 20.3331 12.0475C17.9997 11.8808 16.595 13.0237 16.595 15.0237C16.595 17.0475 17.9997 18.1903 20.3331 17.9999C21.6902 17.9046 22.7378 17.4761 23.6188 17.0475V18.8808C23.6188 18.8808 21.8807 19.3332 20.214 19.4046C17.1426 19.5475 15.2378 18.9523 14.1426 18.0237V28.0237H20.4997C22.8807 28.0237 24.8331 26.0951 24.8331 23.6903V2.02368H18.4759Z" fill="url(#paint4_linear_520_255)"/>
<defs>
<linearGradient id="paint0_linear_520_255" x1="26.1147" y1="16.6694" x2="36.8142" y2="16.6694" gradientUnits="userSpaceOnUse">
<stop stop-color="#007940"/>
<stop offset="0.229" stop-color="#00873F"/>
<stop offset="0.743" stop-color="#40A737"/>
<stop offset="1" stop-color="#5CB531"/>
</linearGradient>
<linearGradient id="paint1_linear_520_255" x1="26.1152" y1="15.0013" x2="36.8155" y2="15.0013" gradientUnits="userSpaceOnUse">
<stop stop-color="#007940"/>
<stop offset="0.229" stop-color="#00873F"/>
<stop offset="0.743" stop-color="#40A737"/>
<stop offset="1" stop-color="#5CB531"/>
</linearGradient>
<linearGradient id="paint2_linear_520_255" x1="26.1145" y1="13.1873" x2="36.8142" y2="13.1873" gradientUnits="userSpaceOnUse">
<stop stop-color="#007940"/>
<stop offset="0.229" stop-color="#00873F"/>
<stop offset="0.743" stop-color="#40A737"/>
<stop offset="1" stop-color="#5CB531"/>
</linearGradient>
<linearGradient id="paint3_linear_520_255" x1="2.16188" y1="15.0013" x2="13.0269" y2="15.0013" gradientUnits="userSpaceOnUse">
<stop stop-color="#1F286F"/>
<stop offset="0.475" stop-color="#004E94"/>
<stop offset="0.826" stop-color="#0066B1"/>
<stop offset="1" stop-color="#006FBC"/>
</linearGradient>
<linearGradient id="paint4_linear_520_255" x1="14.0809" y1="15.0013" x2="24.6335" y2="15.0013" gradientUnits="userSpaceOnUse">
<stop stop-color="#6C2C2F"/>
<stop offset="0.173" stop-color="#882730"/>
<stop offset="0.573" stop-color="#BE1833"/>
<stop offset="0.859" stop-color="#DC0436"/>
<stop offset="1" stop-color="#E60039"/>
</linearGradient>
</defs>
</svg>
