<svg width="34" height="21" viewBox="0 0 34 21" fill="none" xmlns="http://www.w3.org/2000/svg">
<path fill-rule="evenodd" clip-rule="evenodd" d="M17.0597 18.1592C18.09 17.2193 18.9124 16.0745 19.4743 14.7981C20.0362 13.5218 20.3252 12.142 20.3227 10.7475C20.3252 9.35289 20.0363 7.97317 19.4744 6.6968C18.9125 5.42043 18.09 4.2756 17.0597 3.33572C15.298 1.72756 12.9609 0.747559 10.3964 0.747559C4.91446 0.747559 0.470215 5.22461 0.470215 10.7475C0.470215 16.2701 4.91446 20.7474 10.3964 20.7474C12.9609 20.7474 15.2981 19.7674 17.0597 18.1592Z" fill="white"/>
<path fill-rule="evenodd" clip-rule="evenodd" d="M23.7231 0.747559C21.1585 0.747559 18.8211 1.72756 17.0597 3.33572C16.7005 3.66395 16.3656 4.01779 16.0575 4.39447H18.0612C18.3362 4.73067 18.5892 5.08439 18.8184 5.45339H15.3008C15.089 5.79461 14.8979 6.14822 14.7285 6.51231H19.3898C19.5503 6.85692 19.6909 7.21041 19.811 7.57106H14.3082C14.1928 7.91843 14.0966 8.27187 14.02 8.6298H20.0994C20.2482 9.32586 20.3231 10.0357 20.3228 10.7475C20.3228 11.8576 20.1427 12.9258 19.8112 13.9237H14.3082C14.4279 14.2844 14.5682 14.638 14.7285 14.9826H19.3898C19.2207 15.3467 19.0298 15.7004 18.8182 16.0416H15.3008C15.5298 16.4105 15.7825 16.7642 16.0574 17.1005H18.0612C17.7535 17.4773 17.4188 17.8312 17.0597 18.1594C18.8211 19.7676 21.1585 20.7476 23.7231 20.7476C29.2048 20.7476 33.6492 16.2703 33.6492 10.7476C33.6492 5.22461 29.2048 0.747559 23.7231 0.747559Z" fill="#727272"/>
<path fill-rule="evenodd" clip-rule="evenodd" d="M32.3276 16.3217C32.3276 16.1432 32.4711 15.9985 32.6485 15.9985C32.8254 15.9985 32.9689 16.1432 32.9689 16.3217C32.9689 16.4997 32.8254 16.6444 32.6485 16.6444C32.5631 16.6441 32.4814 16.61 32.4212 16.5495C32.3611 16.4889 32.3274 16.407 32.3276 16.3217V16.3217ZM32.6483 16.5667C32.7827 16.5667 32.8918 16.4573 32.8918 16.3215C32.8918 16.1856 32.7827 16.0759 32.6483 16.0759C32.5135 16.0759 32.4044 16.1856 32.4044 16.3215C32.4044 16.4573 32.5137 16.5667 32.6483 16.5667ZM32.605 16.4632H32.5392V16.1791H32.6584C32.683 16.1791 32.7082 16.1798 32.73 16.1936C32.7414 16.2016 32.7506 16.2123 32.7568 16.2246C32.7631 16.237 32.7663 16.2507 32.766 16.2646C32.766 16.2965 32.7474 16.3266 32.7173 16.338L32.7692 16.463H32.6962L32.6532 16.3507H32.6052V16.4632V16.3025H32.6415C32.6547 16.3025 32.6696 16.3032 32.6814 16.2967C32.6867 16.293 32.691 16.2881 32.6939 16.2824C32.6968 16.2767 32.6983 16.2704 32.6981 16.264C32.6979 16.2583 32.6963 16.2527 32.6936 16.2477C32.6908 16.2428 32.6869 16.2385 32.6822 16.2353C32.6708 16.2284 32.6524 16.2301 32.6399 16.2301H32.6054V16.4632H32.605Z" fill="#CC2131"/>
<path fill-rule="evenodd" clip-rule="evenodd" d="M30.2283 12.9149C30.2283 12.7365 30.3718 12.5918 30.5488 12.5918C30.7258 12.5918 30.8692 12.7365 30.8692 12.9149C30.8692 13.0933 30.7258 13.2376 30.5488 13.2376C30.3718 13.2376 30.2283 13.0931 30.2283 12.9149ZM30.5486 13.16C30.683 13.16 30.7921 13.0502 30.7921 12.9147C30.7921 12.7789 30.683 12.6691 30.5486 12.6691C30.4138 12.6691 30.3051 12.7789 30.3051 12.9147C30.3051 13.0502 30.414 13.16 30.5486 13.16ZM30.5053 13.0564H30.4395V12.7726H30.5587C30.5834 12.7726 30.6089 12.773 30.6304 12.7872C30.6417 12.7951 30.6509 12.8057 30.6572 12.818C30.6634 12.8303 30.6666 12.844 30.6664 12.8578C30.6664 12.89 30.6479 12.9198 30.6176 12.9312L30.6696 13.0562H30.5968L30.5536 12.944H30.5055V13.0564V12.8957H30.5419C30.5554 12.8957 30.5702 12.8968 30.5818 12.8902C30.587 12.8865 30.5912 12.8817 30.5941 12.876C30.597 12.8703 30.5985 12.864 30.5984 12.8576C30.5983 12.8518 30.5968 12.8462 30.594 12.8411C30.5913 12.836 30.5873 12.8317 30.5825 12.8285C30.5711 12.8219 30.5527 12.8234 30.5406 12.8234H30.5057V13.0564H30.5053ZM9.15628 13.2376H7.9209L8.65511 9.34032L6.96466 13.2376H5.83817L5.63227 9.36267L4.89576 13.2376H3.77441L4.73261 8.1679H6.66034L6.76231 11.3065L8.12148 8.1679H10.1303L9.15628 13.2376V13.2376ZM22.9627 13.1871C22.6247 13.2806 22.3604 13.3208 22.0749 13.3208C21.4429 13.3208 21.0978 13.0014 21.0978 12.4155C21.0978 12.2995 21.1105 12.1761 21.1341 12.0455L21.2093 11.6424L21.2671 11.3161L21.8398 8.16772H23.0684L22.8904 9.11457H23.5208L23.3514 10.1169H22.7183L22.3927 11.8372C22.3807 11.8933 22.3736 11.9505 22.3716 12.0079C22.3716 12.2209 22.4995 12.3135 22.7932 12.3135C22.9338 12.3135 23.0429 12.3007 23.1264 12.275L22.9627 13.1871ZM26.571 9.14844C26.4674 9.10729 26.4431 9.10729 26.431 9.10392C26.3656 9.08938 26.3307 9.08087 26.3246 9.07981C26.2836 9.07263 26.242 9.06919 26.2003 9.06952C25.7947 9.06952 25.5023 9.25148 25.1242 9.739L25.2332 9.11421H24.1144L23.3614 13.2375H24.5976C25.0399 10.7158 25.2293 10.2742 25.8224 10.2742C25.8671 10.2742 25.9187 10.2778 25.9786 10.2847L26.123 10.3143L26.571 9.14844V9.14844ZM18.0653 10.4172C18.0653 10.938 18.3567 11.2968 19.0172 11.5664C19.5233 11.7735 19.6015 11.8341 19.6015 12.0214C19.6015 12.278 19.3784 12.3938 18.8841 12.3938C18.511 12.3938 18.1643 12.3433 17.764 12.2307L17.5925 13.1818L17.6479 13.1912L17.8768 13.2334C17.9506 13.2462 18.0593 13.2584 18.2035 13.2694C18.5007 13.2926 18.7307 13.3036 18.8928 13.3036C20.2116 13.3036 20.8207 12.8682 20.8207 11.9278C20.8207 11.3619 20.5661 11.0301 19.9399 10.7802C19.4158 10.5714 19.3552 10.5252 19.3552 10.3327C19.3552 10.1105 19.563 9.99632 19.9668 9.99632C20.2125 9.99632 20.5473 10.0196 20.8649 10.0582L21.043 9.10375C20.7195 9.05941 20.2286 9.02306 19.9432 9.02306C18.5451 9.02323 18.0611 9.65671 18.0653 10.4172V10.4172ZM13.1724 13.2376H12.1458L12.1697 12.8102C11.8571 13.1486 11.4403 13.3089 10.8739 13.3089C10.2044 13.3089 9.74489 12.8496 9.74489 12.1828C9.74489 11.1783 10.5431 10.5929 11.915 10.5929C12.0557 10.5929 12.2343 10.6041 12.4184 10.6247C12.4567 10.4892 12.4671 10.4306 12.4671 10.3569C12.4671 10.0839 12.2516 9.98178 11.6747 9.98178C11.322 9.98178 10.9233 10.0265 10.6481 10.0967L10.477 10.1405L10.3661 10.1671L10.5374 9.24012C11.1534 9.08122 11.5598 9.0211 12.0165 9.0211C13.0782 9.0211 13.6394 9.43999 13.6394 10.2306C13.6394 10.434 13.6207 10.5885 13.539 11.0474L13.2808 12.5102L13.2373 12.7726L13.2058 12.9823L13.1847 13.1257L13.1724 13.2376V13.2376ZM12.2712 11.4007C12.1796 11.3893 12.0873 11.3836 11.995 11.3837C11.2949 11.3837 10.9402 11.5945 10.9402 12.011C10.9402 12.2676 11.1133 12.4314 11.3834 12.4314C11.887 12.4316 12.2499 12.0104 12.2712 11.4007ZM17.2253 13.1486C16.8127 13.2606 16.3869 13.3168 15.9594 13.3159C14.5782 13.3148 13.8584 12.6813 13.8584 11.4686C13.8584 10.0532 14.7742 9.01117 16.0174 9.01117C17.0344 9.01117 17.6839 9.59481 17.6839 10.5099C17.6839 10.8137 17.6395 11.1099 17.5323 11.5279H15.0759C15.0683 11.5706 15.0644 11.6139 15.064 11.6573C15.064 12.1353 15.4302 12.3791 16.1477 12.3791C16.589 12.3791 16.9878 12.2984 17.4306 12.1182L17.2253 13.1486ZM16.5673 10.6952C16.5741 10.6094 16.5776 10.5392 16.5776 10.4849C16.5776 10.1501 16.3611 9.95358 15.9933 9.95358C15.6003 9.95358 15.3192 10.2171 15.2051 10.6928L16.5673 10.6952ZM30.4112 11.3683C30.2262 12.7398 29.2755 13.3481 28.0115 13.3481C26.6139 13.3481 26.0494 12.494 26.0494 11.4475C26.0494 9.98621 27.0054 8.9961 28.482 8.9961C29.7637 8.9961 30.4442 9.81029 30.4442 10.857C30.4442 11.1116 30.4438 11.1285 30.4112 11.3683ZM29.1389 10.8407C29.1389 10.4094 28.9651 10.0022 28.4586 10.0022C27.8282 10.0022 27.4375 10.7529 27.4375 11.4156C27.4375 11.9746 27.7052 12.3502 28.1468 12.3422C28.4146 12.3422 28.9857 11.9748 29.0986 11.333C29.1251 11.1833 29.1389 11.0191 29.1389 10.8407V10.8407Z" fill="black"/>
</svg>
